<svg xmlns:xlink="http://www.w3.org/1999/xlink" viewBox="0 0 20 20" fill="none" xmlns="http://www.w3.org/2000/svg" width="28"  height="28" ><path fill="#1DA1F2" d="M0 0h20v20H0z"></path><g clip-path="url(#clip0)" fill="none"><path d="M6.998 16.301c5.932 0 9.176-4.914 9.176-9.176 0-.14 0-.278-.01-.417a6.56 6.56 0 001.61-1.669 6.435 6.435 0 01-1.853.507 3.235 3.235 0 001.418-1.783 6.461 6.461 0 01-2.048.782 3.228 3.228 0 00-5.496 2.942 9.156 9.156 0 01-6.646-3.37 3.227 3.227 0 00.999 4.305 3.201 3.201 0 01-1.464-.403v.04a3.226 3.226 0 002.587 3.162c-.474.13-.973.148-1.456.055a3.229 3.229 0 003.013 2.24 6.472 6.472 0 01-4.773 1.336A9.13 9.13 0 006.998 16.3" fill="#FFFFFF"></path></g><defs><clipPath id="clip0"><path fill="#fff" transform="translate(2.143 2.143)" d="M0 0h15.714v15.714H0z"></path></clipPath></defs></svg>