<svg xmlns:xlink="http://www.w3.org/1999/xlink" id="serp_medal_svg" style="" xmlns="http://www.w3.org/2000/svg" viewBox="0 0 32 32" enable-background="new 0 0 32 32" width="32"  height="32" ><path class="medal" d="M12 16.006l2.554 1.28c-1.492.581-2.554 2.023-2.554 3.72 0 2.209 1.791 4 4 4s4-1.791 4-4c0-1.696-1.06-3.138-2.551-3.719l2.551-1.281v-7h-8v7zm-4-6.5v4.183c0 .189.106.362.275.447l1.725.87v-6h-1.5c-.276 0-.5.224-.5.5zm15.5-.5h-1.5v6l1.725-.87c.169-.085.275-.258.275-.447v-4.183c0-.276-.224-.5-.5-.5z"></path><path d="M.018 0h32v32h-32v-32z" fill="none"></path><circle class="meter" stroke="#B1B1B1" stroke-width="2px" stroke-miterlimit="10" cx="16" cy="16" r="14" fill="none" stroke-opacity="0.4"></circle></svg>