<svg xmlns:xlink="http://www.w3.org/1999/xlink" xmlns="http://www.w3.org/2000/svg" viewBox="0 0 12 12" width="12"  height="12" ><path d="M2.245 5H1v4.955h1.245L3 9.973a4.322 4.322 0 0 1 .507.07 5.016 5.016 0 0 1 .847.258 5.23 5.23 0 0 0 2.021.4h3a1.123 1.123 0 0 0 .349-.056 1.151 1.151 0 0 0 .307-.155 1.051 1.051 0 0 0 .246-.243 1.142 1.142 0 0 0 .164-.313l1.5-4.438A1.115 1.115 0 0 0 12 5.138a1.1 1.1 0 0 0-.088-.439 1.135 1.135 0 0 0-.243-.358 1.182 1.182 0 0 0-.36-.24 1.1 1.1 0 0 0-.434-.087h-2.6a2.493 2.493 0 0 1 .111-.511A4.242 4.242 0 0 1 8.578 3a4.208 4.208 0 0 0 .31-.853 3.774 3.774 0 0 0 .106-.9.888.888 0 0 0-.075-.372.939.939 0 0 0-.2-.3.97.97 0 0 0-.3-.2A.929.929 0 0 0 8.057.3.741.741 0 0 0 7.7.382a1.386 1.386 0 0 0-.293.229L3 5z" fill="#001BA0"></path></svg>