<svg xmlns:xlink="http://www.w3.org/1999/xlink" class="sp-ofsite" xmlns="http://www.w3.org/2000/svg" viewBox="0 0 16 16" width="20"  height="20" ><path d="M12.667 1.511l-.248-.178a8 8 0 1 0-5.086 14.633c.22.019.442.034.667.034a7.994 7.994 0 0 0 4.667-14.489zm-11.067 6.489a6.364 6.364 0 0 1 .325-2h.075a3.216 3.216 0 0 0 .943 2.276l1.112 1.113v1.639a.973.973 0 0 0 .973.972.972.972 0 0 1 .972.972v1.1a6.41 6.41 0 0 1-4.4-6.072zm11.067 4.667v-.3a6.4 6.4 0 0 1-3.334 1.892v-4.259a1.333 1.333 0 0 0-1.333-1.333h-2.667a.666.666 0 0 1-.666-.667v-.657a.666.666 0 0 1 .666-.666h1a1 1 0 0 0 1-1v-.677a1 1 0 0 1 1-1 1 1 0 0 0 1-1v-1.258a6.434 6.434 0 0 1 4.12 2.925h-1.453a1.333 1.333 0 0 0-1.333 1.333v1.333a1.334 1.334 0 0 0 1.333 1.334.666.666 0 0 1 .666.666z" fill="#B11D1D"></path></svg>