<svg xmlns:xlink="http://www.w3.org/1999/xlink" xmlns="http://www.w3.org/2000/svg" viewBox="0 0 32 32" width="32"  height="32" ><path d="M12.391 17.57c1.187-0.516 2.419-0.906 3.695-1.172C17.361 16.133 18.666 16 20 16v6l11-11L20 0v6 c-1.292 0-2.534 0.167-3.726 0.499c-1.194 0.334-2.308 0.805-3.344 1.414c-1.037 0.61-1.979 1.339-2.828 2.188 c-0.85 0.849-1.579 1.792-2.188 2.828c-0.609 1.037-1.081 2.152-1.414 3.344C6.166 17.467 6 18.709 6 20v2 c0.916-0.947 1.914-1.794 2.993-2.539C10.071 18.716 11.204 18.086 12.391 17.57z M9.18 14.789 c0.422-0.869 0.938-1.677 1.547-2.422c0.609-0.744 1.302-1.408 2.078-1.992c0.775-0.584 1.617-1.063 2.523-1.438 c0.594-0.25 1.157-0.439 1.688-0.57c0.531-0.129 1.06-0.22 1.586-0.273c0.525-0.052 1.064-0.08 1.617-0.086 C20.771 8.003 21.364 8 22 8V4.828L28.172 11L22 17.172V14h-2c-2.104 0-4.151 0.297-6.141 0.89 c-1.99 0.594-3.859 1.475-5.609 2.641C8.448 16.573 8.758 15.659 9.18 14.789z M22 26H2V8H0v20h24v-6l-2 2V26z" stroke="#FFFFFF" fill="#FFFFFF"></path></svg>