<svg version="1.1" xmlns="http://www.w3.org/2000/svg" xmlns:xlink="http://www.w3.org/1999/xlink" height="24" width="36" viewBox="0 0 36 24"><path d="M0 17.1975C0 15.3121 0.444444 13.4777 1.33333 11.6943C2.22222 9.85987 3.33333 8.20382 4.66667 6.72611C6.04938 5.19745 7.58025 3.87261 9.25926 2.75159C10.9877 1.57961 12.6667 0.662418 14.2963 0L16.4444 3.21019C14.6173 4.63694 13.2346 5.91083 12.2963 7.03185C11.4074 8.15287 10.963 9.27388 10.963 10.3949C10.963 12.1783 12.3457 14.1147 15.1111 16.2038C15.1111 17.4268 14.8889 18.5223 14.4444 19.4904C14 20.4586 13.3827 21.2739 12.5926 21.9363C11.8519 22.5987 10.9877 23.1083 10 23.465C9.06173 23.8217 8.07407 24 7.03704 24C5.01235 24 3.33333 23.4395 2 22.3185C0.666667 21.1975 0 19.4904 0 17.1975ZM19.6296 17.1975C19.6296 15.3121 20.0741 13.4777 20.963 11.6943C21.8519 9.85987 22.963 8.20382 24.2963 6.72611C25.679 5.19745 27.2099 3.87261 28.8889 2.75159C30.6173 1.57961 32.2963 0.662418 33.9259 0L36 3.21019C34.2222 4.63694 32.8642 5.91083 31.9259 7.03185C31.037 8.15287 30.5926 9.27388 30.5926 10.3949C30.5926 12.1783 31.9753 14.1147 34.7407 16.2038C34.7407 17.4268 34.5185 18.5223 34.0741 19.4904C33.6296 20.4586 33.0123 21.2739 32.2222 21.9363C31.4815 22.5987 30.6173 23.1083 29.6296 23.465C28.642 23.8217 27.6296 24 26.5926 24C24.6173 24 22.963 23.4395 21.6296 22.3185C20.2963 21.1975 19.6296 19.4904 19.6296 17.1975Z" fill="#FAEFEF"></path></svg>