<svg version="1.1" xmlns="http://www.w3.org/2000/svg" xmlns:xlink="http://www.w3.org/1999/xlink" height="12" width="12" viewBox="0 0 16 16"><path d="m12 10v-8c0-1.105-.896-2-2-2h-8c-1.104 0-2 .895-2 2v8c0 1.105.896 2 2 2h8c1.104 0 2-.895 2-2zm-2-8v5l-.609.762-.61.762c-.2.25-.49.375-.781.375s-.581-.125-.781-.376l-1.232-1.54-1.232-1.54c-.196-.245-.48-.371-.765-.376s-.572.111-.776.35l-1.107 1.291-.107.125v-4.833zm-2 3c.276 0 .526-.112.707-.293s.293-.431.293-.707-.112-.526-.293-.707-.431-.293-.707-.293-.526.112-.707.293-.293.431-.293.707.112.526.293.707.431.293.707.293zm7-1c-.552 0-1 .448-1 1v8c-.001.552-.448.999-1 1h-8c-.552 0-1 .448-1 1s.448 1 1 1h8c1.657-.001 2.999-1.343 3-3v-8c0-.552-.448-1-1-1z" fill="#FFFFFF"></path></svg>